<svg width="67" height="72" viewBox="0 0 67 72" opacity="0.2" xmlns="http://www.w3.org/2000/svg">
<path d="M38.7859 51.4852C38.7859 51.4852 43.3447 51.8108 44.6472 51.8108C45.9497 51.8108 47.9035 51.4852 48.2292 49.2058C48.5548 45.2982 42.3678 46.2751 42.6934 42.3676C42.6934 40.0881 46.601 37.8087 46.9266 32.273C47.2523 27.7142 43.996 24.7835 40.0884 24.4579C36.1808 24.1322 32.9245 26.7373 32.5989 31.6217C32.2733 37.1575 36.1808 39.4369 35.8552 42.0419C35.5296 45.9495 29.6682 44.647 29.6682 48.2289C29.6682 50.5083 31.622 51.1596 32.9245 51.1596C34.227 51.1596 38.7859 51.4852 38.7859 51.4852Z" fill="#697A8F"/>
<path d="M52.4622 13.3865L51.8109 3.94321C51.8109 1.66379 49.5315 -0.289995 47.2521 0.0356358L3.94321 2.31505C1.66379 2.31505 -0.289995 4.59447 0.0356358 6.87388L2.64068 55.0672C2.64068 57.3466 4.9201 59.3004 7.19951 58.9748L11.1071 58.6492C12.084 58.6492 13.0609 59.626 13.0609 60.6029L12.7352 65.813C12.7352 68.0924 14.3634 70.0462 16.6428 70.0462L59.9517 72C62.2311 72 64.1849 70.3718 64.5105 68.0924L66.4643 19.8991C66.4643 17.6197 64.8361 15.6659 62.5567 15.3403L54.0903 15.0146C53.1134 15.0146 52.4622 14.3634 52.4622 13.3865ZM7.52514 42.042L5.89699 9.1533C5.89699 8.1764 6.54825 7.19951 7.52514 7.19951L43.9958 5.24573C44.9727 5.24573 45.9496 5.89699 45.9496 6.87388L46.2752 12.4096C46.2752 13.3865 45.6239 14.3634 44.3214 14.3634L19.2478 13.3865C16.9684 13.3865 15.0147 15.0146 14.689 17.2941L13.3865 42.042C13.3865 43.0189 12.7352 43.6701 11.7583 43.6701H9.1533C8.17641 43.9958 7.52514 43.0189 7.52514 42.042ZM57.021 57.3466L20.5504 55.7185C19.5735 55.7185 18.9222 54.7416 18.9222 53.7647L20.5504 20.876C20.5504 19.8991 21.5273 19.2478 22.5041 19.2478L58.9748 20.876C59.9517 20.876 60.6029 21.8529 60.6029 22.8298L58.9748 55.7185C58.6492 56.3697 57.9979 57.3466 57.021 57.3466Z" fill="#697A8F"/>
</svg>
