<svg width="12" height="14" viewBox="0 0 12 14" fill="none" xmlns="http://www.w3.org/2000/svg">
<path fill-rule="evenodd" clip-rule="evenodd" d="M11.3334 2.66665V1.99998C11.3334 1.81588 11.1842 1.66665 11.0001 1.66665H8.00008V0.99998C8.00008 0.63179 7.7016 0.333313 7.33341 0.333313H4.66675C4.29856 0.333313 4.00008 0.63179 4.00008 0.99998V1.66665H1.00008C0.815986 1.66665 0.666748 1.81588 0.666748 1.99998V2.66665C0.666748 2.85074 0.815986 2.99998 1.00008 2.99998H11.0001C11.1842 2.99998 11.3334 2.85074 11.3334 2.66665ZM3.24674 13.6666C2.54532 13.6684 1.9625 13.1263 1.91341 12.4266L1.33341 4.33331H10.6667L10.1001 12.4266C10.051 13.1263 9.46816 13.6684 8.76674 13.6666H3.24674Z" fill="#697A8F"/>
</svg>
