<svg width="8" height="5" viewBox="0 0 8 5" fill="none" xmlns="http://www.w3.org/2000/svg">
<path d="M0.895104 1.29501C0.824112 1.2246 0.78418 1.12875 0.78418 1.02876C0.78418 0.928769 0.824112 0.832921 0.895104 0.762508L1.0451 0.612508C1.11566 0.539264 1.21341 0.498534 1.3151 0.500008H6.68511C6.78679 0.498534 6.88455 0.539264 6.95511 0.612508L7.10511 0.762508C7.1761 0.832921 7.21603 0.928769 7.21603 1.02876C7.21603 1.12875 7.1761 1.2246 7.10511 1.29501L4.2626 4.13751C4.19456 4.21002 4.09954 4.25115 4.0001 4.25115C3.90067 4.25115 3.80565 4.21002 3.7376 4.13751L0.895104 1.29501Z" fill="#697A8F"/>
</svg>
